<svg width="40.000000" height="40.000000" viewBox="0 0 40 40" fill="none" xmlns="http://www.w3.org/2000/svg" xmlns:xlink="http://www.w3.org/1999/xlink">
	<desc>
			Created with Pixso.
	</desc>
	<g clip-path="url(#clip2_1)">
		<path d="M15 5C6.71574 5 0 11.7157 0 20C0 28.2843 6.71574 35 15 35C23.2843 35 30.0001 28.2843 30.0001 20C30.0001 11.7157 23.2843 5 15 5ZM15 11C10.0295 11 6.00002 15.0294 6.00002 20C6.00002 24.9706 10.0295 29 15 29C19.9706 29 24.0001 24.9706 24.0001 20C24.0001 15.0294 19.9706 11 15 11Z" fill-rule="evenodd" fill="#0057FE" fill-opacity="1.000000"/>
		<path d="M24 20L30 20L30 9L39 9L39 5L24 5L24 20Z" fill-rule="evenodd" fill="#12D2AC" fill-opacity="1.000000"/>
		<path d="M30 20L24 20C24 24.9706 19.9706 29 15 29L15 35C23.2843 35 30 28.2843 30 20Z" fill-rule="evenodd" fill="#12D2AC" fill-opacity="1.000000"/>
		<rect x="24.000000" y="19.000000" width="6.000000" height="2.000000" fill="#12D2AC"/>
	</g>
	<defs>
		<clipPath id="clip2_1">
			<rect width="40.000000" height="40.000000" fill="white" fill-opacity="0"/>
		</clipPath>
	</defs>
</svg>
